<svg width="21" height="31" viewBox="0 0 21 31" fill="none" xmlns="http://www.w3.org/2000/svg">
<path fill-rule="evenodd" clip-rule="evenodd" d="M4.84986 6.00677C3.63029 7.52727 3.00003 9.62832 3.00003 11.8183C3.00003 16.2761 5.05122 20.2608 7.20969 23.2041C8.27988 24.6635 9.35183 25.833 10.1545 26.6357C10.2765 26.7576 10.392 26.8709 10.5001 26.9752C10.6083 26.8709 10.7238 26.7576 10.8457 26.6357C11.6484 25.833 12.7204 24.6635 13.7906 23.2041C15.949 20.2608 18.0002 16.2761 18.0002 11.8183C18.0002 9.62832 17.3699 7.52727 16.1504 6.00677C14.9656 4.52958 13.1503 3.50003 10.5001 3.50003C7.84995 3.50003 6.03469 4.52958 4.84986 6.00677ZM10.5001 29.0003C9.55025 30.1613 9.54941 30.1606 9.54941 30.1606L9.54564 30.1575L9.53775 30.151L9.51235 30.1299C9.49122 30.1122 9.46177 30.0874 9.42455 30.0556C9.35013 29.992 9.24457 29.9003 9.11234 29.7819C8.848 29.545 8.47634 29.2002 8.03318 28.757C7.14836 27.8722 5.97028 26.5871 4.79045 24.9782C2.44886 21.7852 0 17.1788 0 11.8183C0 9.09916 0.776007 6.29106 2.5096 4.1297C4.27793 1.92502 6.96272 0.5 10.5001 0.5C14.0375 0.5 16.7223 1.92502 18.4906 4.12969C20.2242 6.29106 21.0002 9.09916 21.0002 11.8183C21.0002 17.1788 18.5514 21.7852 16.2098 24.9782C15.03 26.5871 13.8519 27.8722 12.9671 28.757C12.5239 29.2002 12.1522 29.545 11.8879 29.7819C11.7557 29.9003 11.6501 29.992 11.5757 30.0556C11.5385 30.0874 11.509 30.1122 11.4879 30.1299L11.4625 30.151L11.4546 30.1575L11.4519 30.1597C11.4519 30.1597 11.45 30.1613 10.5001 29.0003ZM10.5001 29.0003L11.45 30.1613C10.8974 30.6134 10.102 30.6127 9.54941 30.1606L10.5001 29.0003Z" fill="#283454"/>
<path fill-rule="evenodd" clip-rule="evenodd" d="M10.5001 9.5001C9.67168 9.5001 9.0001 10.1717 9.0001 11.0001C9.0001 11.8286 9.67168 12.5001 10.5001 12.5001C11.3286 12.5001 12.0001 11.8286 12.0001 11.0001C12.0001 10.1717 11.3286 9.5001 10.5001 9.5001ZM6.00007 11.0001C6.00007 8.51481 8.01481 6.50007 10.5001 6.50007C12.9854 6.50007 15.0002 8.51481 15.0002 11.0001C15.0002 13.4854 12.9854 15.5002 10.5001 15.5002C8.01481 15.5002 6.00007 13.4854 6.00007 11.0001Z" fill="#283454"/>
</svg>
