<svg width="26" height="27" viewBox="0 0 26 27" fill="none" xmlns="http://www.w3.org/2000/svg">
<path fill-rule="evenodd" clip-rule="evenodd" d="M0 4.49999C0 2.01472 1.74609 0 3.9 0H18.2C21.7898 0 24.7 3.35786 24.7 7.49999V18.7613C24.7 19.1293 24.7391 19.4958 24.8164 19.8528L25.9612 25.1362C26.0738 25.656 25.9376 26.2056 25.6038 26.5781C25.27 26.9507 24.7893 27.0895 24.3428 26.9423L15.9431 24.1731C15.5947 24.0582 15.2341 24 14.8717 24H6.49999C2.91015 24 0 20.6421 0 16.5V4.49999ZM3.9 3C3.18203 3 2.6 3.67157 2.6 4.49999V16.5C2.6 18.9853 4.34608 21 6.49999 21H14.8717C15.4757 21 16.0767 21.0971 16.6574 21.2885L22.8929 23.3442L22.2941 20.5804C22.1652 19.9855 22.1 19.3746 22.1 18.7613V7.49999C22.1 5.01471 20.3539 3 18.2 3H3.9Z" fill="#283454"/>
<path d="M9.09999 12C9.09999 12.8284 8.51796 13.5 7.79999 13.5C7.08202 13.5 6.49999 12.8284 6.49999 12C6.49999 11.1716 7.08202 10.5 7.79999 10.5C8.51796 10.5 9.09999 11.1716 9.09999 12Z" fill="#283454"/>
<path d="M14.3 12C14.3 12.8284 13.718 13.5 13 13.5C12.282 13.5 11.7 12.8284 11.7 12C11.7 11.1716 12.282 10.5 13 10.5C13.718 10.5 14.3 11.1716 14.3 12Z" fill="#283454"/>
<path d="M19.5 12C19.5 12.8284 18.9179 13.5 18.2 13.5C17.482 13.5 16.9 12.8284 16.9 12C16.9 11.1716 17.482 10.5 18.2 10.5C18.9179 10.5 19.5 11.1716 19.5 12Z" fill="#283454"/>
</svg>
