<svg width="29" height="31" viewBox="0 0 29 31" fill="none" xmlns="http://www.w3.org/2000/svg">
<path fill-rule="evenodd" clip-rule="evenodd" d="M5.41846 3.5661C4.10221 5.05282 2.87774 6.90978 2.90031 9.42776C2.92371 12.0382 4.29418 15.7726 9.26537 20.9152C14.2365 26.0578 17.8464 27.4755 20.3698 27.4997C22.8039 27.523 24.5989 26.2563 26.0361 24.8947L21.4818 20.1833L19.6695 22.0581C19.2383 22.5042 18.5835 22.6235 18.031 22.3568C15.6453 21.205 13.5399 19.7792 11.9489 18.1494C9.61244 15.7558 8.3595 13.169 7.83246 11.7514C7.62675 11.1981 7.75531 10.5715 8.1605 10.1523L9.97281 8.27749L5.41846 3.5661ZM3.40906 1.39523C4.50319 0.180608 6.30345 0.238955 7.37369 1.34611L12.1029 6.23838C13.1915 7.36455 13.1915 9.19043 12.1029 10.3166L10.9079 11.5528C11.4625 12.7495 12.4441 14.4346 13.9895 16.0177C15.1018 17.1571 16.5867 18.2352 18.352 19.1784L19.5106 17.9798C20.5993 16.8536 22.3643 16.8536 23.4529 17.9798L28.1821 22.8721C29.2524 23.9792 29.3087 25.8416 28.1346 26.9734C26.4981 28.5509 23.9704 30.5343 20.3429 30.4995C16.7357 30.465 12.4395 28.4414 7.21476 23.0365C1.98999 17.6315 0.0338817 13.1872 0.000436383 9.45557C-0.033197 5.70298 1.8841 3.08812 3.40906 1.39523Z" fill="#283454"/>
</svg>
